<svg xmlns="http://www.w3.org/2000/svg" width="180" height="28" fill="none"><path fill="#F7F7F7" d="M23.177 5.895H5.004v2.214h18.173V5.895Z"/><path fill="#ECECEC" d="M21.38 9.828H6.8v2.215H21.38V9.828Z"/><path fill="#F7F7F7" d="M15.195 13.762H12.98v9.725h2.215v-9.725ZM10.77 13.762H8.554v9.725h2.214v-9.725ZM19.628 13.762h-2.214v9.725h2.214v-9.725Z"/><path fill="#F7F7F7" fill-rule="evenodd" d="M58.793 14.877c0-4.255 2.714-6.97 6.806-6.97 4.091 0 6.887 2.756 6.887 6.834 0 4.078-2.727 6.97-6.833 6.97-4.105 0-6.874-2.742-6.874-6.834h.014Zm6.82-4.855c-2.77 0-4.529 1.76-4.529 4.664 0 2.905 1.76 4.938 4.57 4.938 2.809 0 4.568-1.76 4.568-4.665 0-2.905-1.8-4.937-4.61-4.937Zm-15.195.163c-2.714 0-4.773 1.582-4.773 4.529 0 2.946 2.127 4.746 4.991 4.746 2.087 0 3.983-1.2 4.351-3.369l.246.11c.529.235 1.052.468 1.596.681-.382 3.573-3.601 4.815-6.479 4.815-4.133 0-7.078-2.96-7.078-6.983 0-4.024 3-6.697 7.187-6.697 3.083 0 5.783 1.377 6.424 4.35l-1.95.75c-.6-2.031-2.714-2.945-4.515-2.945v.013Zm25.205 11.09h11.143v-2.128h-8.96V8.399h-2.183v12.875Zm11.934-6.398c0-4.255 2.714-6.97 6.82-6.97 4.104 0 6.887 2.756 6.887 6.834 0 4.078-2.728 6.97-6.833 6.97-4.106 0-6.874-2.742-6.874-6.834Zm6.82-4.855c-2.77 0-4.529 1.76-4.529 4.664 0 2.905 1.76 4.938 4.569 4.938 2.81 0 4.569-1.76 4.569-4.665 0-2.905-1.8-4.937-4.61-4.937Zm15.697 11.729c2.85 0 6.424-1.023 6.424-4.542l.013.014c0-3.12-3.431-3.394-6.368-3.628-2.199-.176-4.12-.33-4.12-1.637 0-1.268 2.032-1.977 3.832-1.977 1.91 0 3.997.613 4.542 2.55l1.814-.723c-.436-2.891-3.505-3.846-6.356-3.846-2.85 0-6.41 1.187-6.41 4.2 0 3.151 3.397 3.352 6.354 3.527 2.28.135 4.298.255 4.298 1.698 0 1.773-2.741 2.086-4.255 2.086-1.678 0-3.71-.286-4.528-2.441l-1.937.927c.736 3.478 4.528 3.792 6.697 3.792Zm21.578-4.542c0 3.52-3.587 4.542-6.424 4.542-2.169 0-5.96-.314-6.697-3.792l1.937-.927c.818 2.155 2.851 2.441 4.528 2.441 1.514 0 4.255-.313 4.255-2.086 0-1.443-2.018-1.563-4.297-1.698-2.958-.175-6.355-.376-6.355-3.526 0-3.014 3.56-4.2 6.411-4.2 2.85 0 5.919.954 6.355 3.845l-1.814.723c-.545-1.937-2.632-2.55-4.541-2.55-1.801 0-3.833.709-3.833 1.977 0 1.308 1.922 1.461 4.12 1.636 2.937.235 6.369.508 6.369 3.629l-.014-.014Zm3.014 4.065h12.043v-2.128h-9.874v-3.382h7.897v-2.21h-7.897v-2.986h9.506V8.399h-11.675v12.875Zm14.512-4.76V8.4h2.182v7.61c0 2.265 1.309 3.52 4.064 3.52s4.065-1.255 4.065-3.52V8.4h2.182v8.115c0 3.11-2.346 5.224-6.247 5.224-3.9 0-6.246-2.114-6.246-5.224Zm23.532.914 4.521-9.029H180v12.875h-2.182v-8.988c-.444.832-1.368 2.667-2.292 4.501-.924 1.835-1.848 3.669-2.291 4.5h-1.05l-4.569-9v8.973h-2.182V8.4h2.755c.464.893 1.445 2.867 2.399 4.788.863 1.737 1.704 3.43 2.122 4.241Z" clip-rule="evenodd"/></svg>